HIERARCHY
ROOT Hips
{
  OFFSET -331.093 83.8371 -317.828
  CHANNELS 6 Xposition Yposition Zposition Zrotation Xrotation Yrotation
  JOINT LeftUpLeg
  {
    OFFSET 8.64259 1.95398 -2.38835
    CHANNELS 3 Zrotation Xrotation Yrotation
    JOINT LeftLeg
    {
      OFFSET 43.7702 0 0
      CHANNELS 3 Zrotation Xrotation Yrotation
      JOINT LeftFoot
      {
        OFFSET 40.6238 0 0
        CHANNELS 3 Zrotation Xrotation Yrotation
        JOINT LeftToeBase
        {
          OFFSET 12.7242 0 0
          CHANNELS 3 Zrotation Xrotation Yrotation
          End Site
          {
            OFFSET 0 0 0
          }
        }
      }
    }
  }
  JOINT RightUpLeg
  {
    OFFSET -8.2249 1.95398 -2.59336
    CHANNELS 3 Zrotation Xrotation Yrotation
    JOINT RightLeg
    {
      OFFSET 43.5653 0 0
      CHANNELS 3 Zrotation Xrotation Yrotation
      JOINT RightFoot
      {
        OFFSET 40.6238 0 0
        CHANNELS 3 Zrotation Xrotation Yrotation
        JOINT RightToeBase
        {
          OFFSET 12.7242 0 0
          CHANNELS 3 Zrotation Xrotation Yrotation
          End Site
          {
            OFFSET 0 0 0
          }
        }
      }
    }
  }
  JOINT Spine
  {
    OFFSET 0.165834 0.87714 6.61349
    CHANNELS 3 Zrotation Xrotation Yrotation
    JOINT Spine1
    {
      OFFSET 7.38963 1.71661e-005 0
      CHANNELS 3 Zrotation Xrotation Yrotation
      JOINT Spine2
      {
        OFFSET 11.9445 1.14441e-005 0
        CHANNELS 3 Zrotation Xrotation Yrotation
        JOINT Spine3
        {
          OFFSET 14.7254 4.19617e-005 0
          CHANNELS 3 Zrotation Xrotation Yrotation
          JOINT Spine4
          {
            OFFSET 10.9679 0 0
            CHANNELS 3 Zrotation Xrotation Yrotation
            JOINT RightShoulder
            {
              OFFSET 2.46616 -1.6653 3.69651
              CHANNELS 3 Zrotation Xrotation Yrotation
              JOINT RightArm
              {
                OFFSET 13.0012 0 0
                CHANNELS 3 Zrotation Xrotation Yrotation
                JOINT RightForeArm
                {
                  OFFSET 28.7848 1.62311e-005 0
                  CHANNELS 3 Zrotation Xrotation Yrotation
                  JOINT RightHand
                  {
                    OFFSET 26.5688 1.62095e-005 0
                    CHANNELS 3 Zrotation Xrotation Yrotation
                    End Site
                    {
                      OFFSET 0 0 0
                    }
                  }
                }
              }
            }
            JOINT LeftShoulder
            {
              OFFSET 2.38034 -1.29275 -3.7523
              CHANNELS 3 Zrotation Xrotation Yrotation
              JOINT LeftArm
              {
                OFFSET 16.3182 6.07031e-005 0
                CHANNELS 3 Zrotation Xrotation Yrotation
                JOINT LeftForeArm
                {
                  OFFSET 27.0901 0 0
                  CHANNELS 3 Zrotation Xrotation Yrotation
                  JOINT LeftHand
                  {
                    OFFSET 24.5451 1.51738e-005 0
                    CHANNELS 3 Zrotation Xrotation Yrotation
                    End Site
                    {
                      OFFSET 0 0 0
                    }
                  }
                }
              }
            }
            JOINT Neck
            {
              OFFSET 5.0226 -0.0266342 0
              CHANNELS 3 Zrotation Xrotation Yrotation
              JOINT Head
              {
                OFFSET 6.69364 2.86102e-005 0
                CHANNELS 3 Zrotation Xrotation Yrotation
                End Site
                {
                  OFFSET 0 0 0
                }
              }
            }
          }
        }
      }
    }
  }
}
MOTION
Frames:	10
Frame Time:	0.0416667
50.3357 90.1442 50.889 85.1494 -32.3284 86.2877 -173.243 -14.9994 92.2866 -24.6039 26.2248 1.10393 57.6491 -1.71633 -0.395823 44.5335 25.042 24.7167 178.409 41.2257 91.0839 -30.5602 0.264235 -1.43295 60.6055 0.195323 0.128397 40.9304 -2.20698 -8.77779 -1.64846 7.52638 -90.3136 11.8241 -3.4257 -0.260287 0.157694 -3.43383 -0.109095 -22.4101 -3.18894 -1.27886 -2.39743 -3.18894 -1.27886 94.0847 -40.2735 -95.8974 34.6954 -10.8058 34.6224 -15.1841 -20.1098 -41.5092 6.63362 0.214135 1.73486 -90.4763 -39.5637 75.8708 -9.54789 -1.08692 -9.49306 14.8695 3.31457 -67.6958 11.7423 0.89029 3.54254 -2.50726 -0.0761383 -2.05812 8.65461 0.616149 4.82282 
57.7612 88.9535 57.6532 86.6247 -35.2364 89.6539 -171.154 -13.1547 96.1064 -35.003 25.7294 1.37084 46.6028 -9.63094 -6.05644 27.5796 5.7052 26.6821 177.26 41.9099 96.0567 -45.9055 -0.739268 -0.631924 67.0963 -2.09963 -1.37879 32.1381 -1.02872 -6.54642 -1.26958 7.58815 -90.7286 11.6843 -2.86696 -1.15238 0.0160629 -2.91487 -1.025 -22.5339 -2.38808 -1.96103 -2.52124 -2.3881 -1.96102 92.9702 -40.466 -97.7859 32.4771 -10.9015 32.243 -14.3987 -20.7387 -39.2588 4.98975 0.168644 2.40399 -92.1538 -42.4857 73.9636 -9.35466 0.814843 -5.31645 13.9572 2.39514 -68.4673 10.2548 0.706571 2.82504 -1.31011 -0.124289 -0.329802 6.18711 0.277582 5.0339 
64.1852 89.7119 63.737 88.6662 -36.9998 91.0029 -171.53 -3.44508 96.5484 -53.5033 21.6589 1.69066 45.4665 -10.3328 -3.93924 28.0758 4.30959 20.0523 177.433 36.0642 98.2585 -49.9538 0.470244 -1.37422 73.5493 -4.71354 -2.67988 28.3632 -0.384894 -3.50888 -0.850451 7.64372 -90.6177 11.5769 -1.98078 -1.02666 -0.0928521 -2.02405 -0.938475 -22.6331 -1.58071 -1.57455 -2.62042 -1.58068 -1.57455 93.054 -40.4756 -97.6393 33.8626 -11.2521 27.5555 -13.777 -20.417 -40.0548 4.14215 0.168953 3.2168 -92.1596 -42.7707 74.0375 -13.2202 6.89388 -3.53759 13.9988 4.20208 -62.8749 8.56785 0.543061 2.24942 -1.86336 -0.786505 -1.07712 6.1095 -0.318676 4.59095 
70.396 92.4372 69.4713 88.7053 -38.0938 90.1397 -172.034 8.10659 94.5667 -62.0023 18.8597 1.05106 50.9803 -6.39067 -0.288459 30.9066 7.80368 21.4899 178.568 27.756 98.368 -45.4879 1.05736 -2.99431 75.1493 -5.23085 -2.91516 29.2354 -0.297381 -2.36461 -0.512651 7.57621 -90.4359 11.72 -1.22431 -0.741177 0.0494754 -1.25575 -0.68658 -22.4873 -0.944978 -1.07487 -2.47468 -0.944964 -1.07487 92.989 -39.3978 -97.9967 36.3867 -11.6274 22.8224 -14.4988 -16.35 -44.9368 1.90568 0.0254506 2.85315 -93.0901 -44.6774 73.1273 -18.0769 10.9414 -0.385278 15.663 9.38857 -56.2453 9.1954 0.68142 3.22623 -3.98638 -1.53425 -0.919813 7.77492 -1.08276 3.97972 
76.1143 95.2867 74.8721 88.941 -38.1509 89.5676 -173.184 17.9921 92.078 -59.4587 16.5624 0.40359 55.331 -3.23612 1.21189 33.0846 10.1295 21.2931 178.32 17.9421 98.3761 -37.1624 0.496693 -3.92517 75.0599 -5.12712 -2.85823 29.497 -0.273454 -2.10469 -0.315683 7.56327 -90.2049 11.7448 -0.723947 -0.331617 0.0740645 -0.737833 -0.299438 -22.462 -0.590808 -0.53386 -2.44934 -0.590825 -0.53387 92.8062 -39.6206 -98.264 37.0928 -12.5775 17.9608 -14.1617 -10.9711 -52.0073 -2.40379 -0.215569 0.830969 -93.3475 -45.6773 73.0219 -23.7555 12.7066 3.82971 14.7367 15.2618 -48.3669 11.5069 0.929117 3.98842 -4.76693 -1.8978 -1.61012 7.25116 -1.48415 2.86344 
82.3511 97.444 80.028 88.2762 -42.1308 87.2987 -173.47 23.4974 89.7593 -46.1839 12.3929 -1.63478 58.0185 -1.61934 0.822991 35.0868 13.1891 23.2412 177.446 9.62475 95.9086 -30.1871 -4.96546 -4.84053 73.4267 -4.8691 -2.71036 30.3003 -0.440968 -3.14918 0.192605 7.53044 -89.8869 11.8126 0.436306 0.179204 0.141731 0.443758 0.159824 -22.3938 0.362264 0.302045 -2.38112 0.362273 0.302045 92.9314 -38.3801 -98.3374 37.4818 -13.0805 11.6542 -15.43 -7.36781 -59.2908 -5.10871 -0.312775 0.0290226 -93.9554 -46.7609 72.4108 -29.269 10.9137 9.30372 11.5785 18.9723 -40.5573 11.9416 0.983775 4.17 -5.34649 -1.98771 -0.579869 7.39778 -1.79371 1.45681 
88.403 98.0047 84.8571 85.9516 -45.7465 85.2369 -175.293 26.2992 90.1826 -24.8024 5.8568 -2.2386 57.2494 -1.43041 0.194137 44.1904 23.5517 22.8925 176.109 4.26567 93.8914 -26.0578 -10.4636 -4.77056 72.1145 -4.8641 -2.65249 32.5962 -0.552185 -3.18372 0.657165 7.40891 -89.7369 12.0539 1.43083 0.368708 0.383676 1.44566 0.305365 -22.1561 1.25385 0.781731 -2.1435 1.25386 0.781744 93.2791 -36.2621 -98.2227 37.335 -13.1708 4.84251 -16.2014 -5.07399 -67.1535 -6.21859 -0.305668 -1.10896 -94.4439 -47.6371 71.9332 -33.2822 9.11802 15.3786 10.127 22.7597 -35.8865 10.4452 0.854358 4.02361 -5.14841 -2.02736 1.00297 7.22429 -2.09312 0.107761 
94.5504 97.4522 89.5719 84.4035 -49.6976 85.162 -178.001 27.381 93.3262 -6.24001 -0.517538 -0.71231 59.8633 0.134161 -1.65143 39.2629 21.3764 29.3171 174.674 -0.9755 93.1874 -23.2354 -15.3607 -4.63753 70.6193 -4.78221 -2.59437 37.4341 -0.614672 -2.44111 1.12009 7.42251 -89.8093 12.0294 2.31693 0.127036 0.360552 2.32027 0.0248782 -22.1896 2.17157 0.817821 -2.17699 2.17157 0.817817 93.745 -32.861 -98.1949 36.9268 -12.8358 -2.67542 -17.7635 -2.69615 -75.2613 -6.26663 -0.334114 -0.399467 -94.2062 -48.1954 72.4556 -36.7364 7.68785 20.9544 10.5727 26.5202 -34.8878 7.80924 0.639322 3.81794 -5.34246 -2.33085 4.37642 9.04468 -3.01939 -3.01581 
101.257 95.7416 94.7158 85.8516 -53.5225 86.6495 -178.778 31.0987 95.6431 -6.57888 -2.52897 -0.043529 63.1363 1.42459 -0.0410283 39.5155 21.8362 29.5335 173.81 -6.0192 90.4989 -25.7123 -20.0583 -6.50837 70.99 -5.56953 -2.99178 43.5063 -1.02363 -3.00038 1.54107 7.57931 -89.7391 11.716 3.18758 0.185439 0.0489002 3.19267 0.0448145 -22.5144 2.98435 1.13571 -2.50177 2.98436 1.1357 93.836 -30.0863 -98.7521 36.6342 -11.3111 -7.87366 -18.5822 -1.7697 -81.1632 -6.46212 -0.354888 -0.0947284 -92.4369 -47.7811 75.004 -39.2712 5.9379 26.5196 11.9509 29.0924 -35.7869 6.35907 0.464762 2.88762 -3.82756 -2.04857 5.15276 7.52507 -2.90666 -4.02647 
108.753 93.7747 100.498 87.9346 -55.0799 86.3237 -177.41 29.8147 93.226 -8.21987 4.08669 -1.92728 59.7025 1.93236 1.88904 42.7177 24.7657 27.6481 171.876 -9.05461 85.9475 -32.6518 -23.261 -9.33043 69.2871 -4.24502 -2.53526 50.0884 -1.52194 -3.63182 1.70867 7.69516 -89.3697 11.4731 3.69411 0.879625 -0.19283 3.72924 0.715973 -22.7602 3.25882 1.95018 -2.74751 3.25881 1.95017 93.6175 -29.4431 -99.3677 37.0467 -8.78931 -7.52006 -19.5256 0.630316 -85.5481 -3.804 -0.245566 -0.480855 -91.1991 -47.7977 76.8833 -38.9317 4.38898 30.5937 11.2339 29.7746 -34.8074 7.23006 0.470331 2.29978 -3.56501 -2.08701 4.71952 6.44319 -2.93474 -4.89837 
